<?xml version="1.0" standalone="no"?>
<!DOCTYPE svg PUBLIC "-//W3C//DTD SVG 20010904//EN"
 "http://www.w3.org/TR/2001/REC-SVG-20010904/DTD/svg10.dtd">
<svg version="1.0" xmlns="http://www.w3.org/2000/svg"
 width="1376.000000pt" height="1376.000000pt" viewBox="0 0 1376.000000 1376.000000"
 preserveAspectRatio="xMidYMid meet">
<metadata>
Created by potrace 1.14, written by Peter Selinger 2001-2017
</metadata>
<g transform="translate(0.000000,1376.000000) scale(0.100000,-0.100000)"
fill="#000000" stroke="none">
<path d="M3547 10673 c-3 -2 -38 -6 -78 -8 -41 -2 -74 -5 -74 -6 0 0 -13 -2
-30 -4 -44 -4 -116 -14 -145 -20 -14 -2 -41 -7 -60 -9 -19 -3 -55 -9 -80 -15
-25 -5 -61 -13 -80 -16 -47 -8 -220 -52 -284 -71 -120 -38 -262 -88 -273 -97
-7 -5 -13 -6 -13 -3 0 4 -10 1 -22 -6 -13 -6 -27 -13 -33 -14 -5 -1 -31 -12
-57 -23 -26 -12 -50 -22 -53 -22 -2 0 -31 -13 -62 -29 -32 -17 -63 -30 -69
-30 -7 0 -14 -3 -16 -7 -1 -5 -25 -19 -53 -32 -27 -13 -81 -42 -120 -64 -38
-23 -73 -40 -77 -39 -5 1 -8 -2 -8 -8 0 -5 -6 -10 -13 -10 -7 0 -23 -9 -35
-20 -12 -11 -28 -20 -36 -20 -8 0 -16 -3 -18 -8 -1 -4 -32 -27 -68 -51 -108
-72 -186 -131 -314 -236 -170 -140 -447 -419 -515 -518 -8 -12 -22 -29 -31
-37 -9 -8 -49 -60 -89 -115 -40 -55 -81 -111 -92 -125 -10 -13 -19 -30 -19
-37 0 -7 -3 -13 -8 -13 -4 0 -12 -9 -17 -20 -6 -11 -40 -68 -76 -127 -36 -60
-85 -148 -110 -198 -24 -49 -48 -93 -54 -97 -5 -4 -6 -8 -1 -8 4 0 2 -10 -6
-22 -24 -38 -108 -243 -154 -380 -45 -129 -119 -403 -128 -468 -3 -19 -7 -46
-10 -60 -10 -45 -15 -75 -21 -115 -3 -22 -7 -51 -10 -65 -21 -117 -29 -274
-29 -525 1 -228 6 -359 19 -425 2 -14 7 -47 10 -75 6 -60 13 -103 26 -170 5
-27 11 -63 13 -80 13 -92 129 -494 171 -590 7 -16 30 -73 51 -125 34 -86 148
-318 201 -411 12 -20 27 -47 35 -60 7 -13 19 -29 25 -37 7 -7 13 -19 13 -27 0
-7 3 -15 8 -17 4 -1 31 -40 61 -85 29 -45 62 -92 72 -104 10 -12 19 -25 19
-29 0 -3 8 -15 17 -26 10 -11 40 -49 68 -84 27 -36 59 -76 71 -90 13 -14 44
-50 70 -80 60 -68 273 -281 335 -335 71 -61 87 -73 189 -153 103 -81 371 -262
388 -262 6 0 12 -3 14 -7 3 -9 27 -22 163 -92 50 -25 92 -49 93 -53 2 -5 11
-8 21 -8 9 0 21 -4 26 -9 6 -4 51 -25 100 -46 50 -20 104 -43 120 -50 59 -26
259 -94 280 -96 6 0 16 -5 23 -11 7 -6 15 -8 19 -5 3 4 11 3 17 -2 10 -7 241
-66 304 -77 45 -7 68 -12 102 -18 39 -8 60 -11 140 -20 30 -4 66 -9 79 -12
121 -26 648 -24 876 2 22 3 58 7 80 9 22 2 41 5 43 6 3 2 13 4 63 12 119 20
253 49 374 84 50 14 95 26 100 27 87 20 476 171 483 188 2 5 8 6 13 2 5 -3 9
0 9 7 0 7 3 10 6 6 3 -3 26 6 50 19 24 14 44 21 44 17 0 -4 4 -3 8 2 4 6 36
26 72 44 91 48 250 144 345 209 102 70 249 183 253 194 2 4 8 8 13 8 6 0 30
19 54 41 25 23 59 53 76 68 37 30 261 253 303 302 41 48 156 188 186 228 14
18 34 45 46 59 40 53 134 194 134 203 0 5 3 9 8 9 4 0 12 10 18 23 27 53 109
192 116 195 4 2 8 8 8 12 0 5 26 62 58 127 61 124 119 256 128 288 1 6 14 42
29 80 15 39 36 97 46 130 11 33 21 66 24 73 3 9 25 -11 58 -50 28 -35 57 -70
64 -78 29 -35 79 -96 88 -108 6 -7 19 -23 30 -35 11 -12 38 -45 60 -72 63 -79
69 -87 80 -99 6 -6 40 -47 75 -91 36 -44 74 -90 85 -102 11 -12 31 -36 45 -54
14 -17 41 -51 60 -74 19 -22 51 -61 70 -85 19 -24 40 -48 45 -54 6 -6 30 -36
55 -66 25 -30 47 -57 50 -60 4 -4 91 -111 150 -184 8 -10 20 -23 25 -30 6 -6
51 -60 100 -121 49 -60 96 -117 104 -126 9 -9 27 -31 41 -49 14 -18 30 -38 35
-44 60 -68 115 -137 115 -145 0 -6 4 -11 8 -11 5 0 33 -30 62 -67 81 -102 89
-111 175 -198 136 -137 290 -224 475 -266 139 -32 339 -32 461 1 24 7 44 11
44 10 0 -7 148 56 203 86 130 71 237 167 362 327 8 11 24 30 35 43 11 12 38
46 60 74 22 28 55 67 73 87 17 19 32 37 32 41 0 4 15 23 33 43 17 20 46 53 64
75 17 21 86 107 153 189 67 83 129 159 138 170 9 11 77 94 151 185 75 91 140
170 146 176 5 6 21 26 35 44 14 19 37 48 51 64 14 17 34 42 45 54 10 13 26 32
34 42 8 10 29 35 45 56 17 21 73 90 125 154 84 102 157 193 182 226 6 8 -52
11 -209 12 -218 0 -306 11 -368 45 -11 6 -25 12 -32 13 -7 1 -26 12 -43 24
l-30 22 -15 -36 c-8 -19 -15 -37 -15 -40 0 -3 -5 -17 -12 -33 -6 -15 -12 -32
-14 -38 -3 -12 -207 -579 -234 -650 -11 -27 -46 -124 -79 -215 -78 -215 -84
-230 -93 -230 -4 0 -8 -5 -8 -11 0 -28 -141 -178 -167 -179 -7 0 -13 -3 -13
-8 0 -6 -88 -51 -115 -59 -230 -63 -433 -16 -581 136 -105 106 -131 169 -190
456 -3 11 -7 36 -10 55 -3 19 -9 51 -14 70 -5 19 -12 49 -14 65 -3 17 -8 41
-11 55 -3 14 -7 36 -10 50 -8 41 -45 223 -51 250 -3 14 -7 34 -9 45 -2 11 -15
76 -29 145 -15 69 -29 136 -31 150 -12 66 -27 140 -30 153 -2 4 -3 14 -4 23
-1 11 -17 3 -58 -29 -74 -55 -139 -85 -226 -103 -98 -21 -1242 -15 -1242 6 0
1 -8 3 -18 5 -35 7 -142 67 -192 108 -78 63 -122 130 -176 262 -23 56 -31 208
-14 275 3 14 8 34 10 46 8 35 46 117 76 159 86 125 204 204 360 241 13 3 176
7 361 8 210 0 340 5 346 11 5 6 55 120 112 255 56 135 110 263 120 285 10 22
31 74 48 115 17 41 38 93 48 115 10 22 18 42 19 45 1 3 9 23 19 45 9 22 36 85
58 140 68 163 133 250 243 323 88 59 173 83 293 87 160 5 296 -50 412 -166 38
-38 72 -80 76 -94 3 -14 10 -25 14 -25 9 0 56 -127 65 -175 3 -16 8 -41 10
-55 16 -77 25 -118 30 -140 3 -14 8 -38 11 -55 5 -32 5 -32 22 -115 6 -30 14
-66 16 -80 4 -21 26 -128 42 -205 3 -11 11 -54 19 -95 8 -41 17 -86 21 -100 3
-14 7 -36 10 -50 3 -14 7 -32 9 -40 2 -8 4 -22 5 -30 1 -8 17 28 36 80 19 52
37 102 41 110 3 8 7 17 8 20 1 3 4 12 7 20 79 221 103 270 165 336 63 68 152
129 208 143 6 2 19 8 30 14 11 6 28 12 38 13 9 1 18 2 20 3 15 13 144 18 197
9 25 -5 58 -11 73 -13 66 -12 182 -80 248 -145 51 -49 88 -107 164 -256 37
-71 100 -192 141 -269 41 -77 77 -148 80 -157 6 -15 43 -17 482 -15 l476 2 63
85 c35 47 68 90 73 97 6 7 10 15 10 17 0 3 15 29 34 58 59 93 177 345 191 408
2 8 11 37 20 64 9 26 19 58 21 70 3 11 6 26 8 31 2 6 7 28 11 50 12 55 12 55
14 58 1 1 4 18 7 37 2 19 6 44 8 55 21 88 28 407 13 545 -5 41 -9 87 -10 103
-1 15 -4 27 -7 27 -3 0 -5 10 -6 23 -1 29 -11 79 -30 147 -8 30 -17 66 -20 79
-3 14 -7 28 -10 33 -3 4 -7 18 -9 30 -3 13 -9 32 -14 43 -5 11 -21 52 -37 90
-143 361 -400 689 -726 929 -42 31 -81 56 -87 56 -5 0 -11 4 -13 8 -5 14 -117
77 -238 135 -108 52 -290 120 -352 131 -15 2 -31 7 -36 10 -15 9 -178 39 -219
40 -13 1 -23 3 -23 6 0 13 -372 19 -490 7 -84 -8 -122 -13 -195 -28 -27 -5
-59 -11 -70 -13 -65 -13 -272 -79 -316 -102 -15 -7 -29 -10 -33 -7 -3 4 -6 1
-6 -5 0 -7 -7 -12 -16 -12 -19 0 -156 -69 -232 -117 -29 -18 -54 -33 -57 -33
-5 0 -97 -62 -105 -71 -3 -3 -23 -18 -45 -35 -69 -51 -106 -83 -201 -174 l-62
-59 -69 67 c-38 37 -89 83 -113 102 -24 19 -51 42 -60 50 -9 8 -24 20 -32 25
-9 6 -42 29 -74 51 -68 47 -192 122 -244 146 -127 59 -181 82 -272 113 -57 20
-105 36 -108 37 -3 0 -9 2 -15 3 -28 8 -113 27 -135 30 -14 2 -50 9 -80 15
-89 17 -195 25 -350 24 -128 -1 -275 -8 -275 -14 0 -2 -11 -4 -25 -5 -37 -3
-112 -15 -132 -21 -9 -3 -25 -6 -35 -8 -102 -21 -318 -95 -421 -145 -34 -17
-64 -31 -67 -31 -2 0 -39 -20 -81 -45 -41 -25 -80 -45 -85 -45 -5 0 -9 -4 -9
-10 0 -5 -5 -10 -10 -10 -9 0 -137 -88 -166 -115 -7 -5 -31 -26 -55 -45 -55
-44 -222 -211 -270 -270 l-35 -43 -113 111 c-62 62 -115 112 -117 112 -3 0
-15 10 -27 23 -36 36 -147 130 -212 178 -33 24 -62 47 -65 50 -6 7 -150 107
-194 134 -18 11 -54 33 -82 50 -27 16 -50 33 -52 37 -2 4 -9 8 -16 8 -7 0 -30
11 -50 25 -20 13 -36 22 -36 19 0 -3 -12 3 -27 14 -79 53 -424 203 -593 257
-47 15 -92 30 -100 33 -8 3 -19 7 -25 8 -5 1 -13 3 -17 4 -5 1 -12 4 -18 5 -5
1 -11 3 -12 5 -2 1 -10 3 -18 5 -8 1 -51 12 -95 23 -77 20 -189 44 -210 47 -5
0 -30 4 -55 9 -25 5 -56 10 -70 12 -14 1 -41 5 -60 8 -19 3 -60 8 -90 12 -30
3 -75 8 -100 11 -60 6 -577 12 -583 6z m508 -507 c146 -15 218 -24 265 -31 88
-15 287 -58 302 -66 9 -5 21 -8 25 -7 4 1 24 -3 43 -10 19 -6 46 -13 60 -16
14 -2 36 -9 50 -14 14 -6 77 -30 140 -53 63 -23 124 -47 135 -52 11 -6 25 -12
31 -13 13 -2 251 -121 305 -151 74 -43 83 -48 93 -55 6 -4 61 -41 122 -81 61
-41 122 -84 135 -95 12 -12 26 -22 30 -22 4 0 14 -6 21 -12 7 -7 40 -35 73
-63 33 -27 76 -63 95 -80 55 -48 222 -215 278 -277 l51 -57 -25 -63 c-13 -35
-29 -70 -34 -79 -5 -9 -12 -33 -15 -53 -4 -20 -11 -39 -16 -42 -5 -3 -9 -15
-9 -28 0 -12 -3 -26 -7 -30 -4 -3 -8 -14 -9 -24 -1 -9 -8 -46 -17 -82 -75
-316 -67 -674 22 -1013 34 -131 137 -396 161 -417 3 -3 21 -36 40 -73 19 -38
43 -77 53 -88 10 -10 15 -19 12 -19 -7 0 47 -74 58 -78 4 -2 7 -8 7 -14 0 -5
17 -31 38 -56 52 -66 267 -328 312 -382 21 -25 65 -78 98 -118 36 -43 59 -79
56 -90 -37 -165 -69 -288 -94 -366 -17 -53 -32 -99 -32 -103 -1 -5 -14 -39
-30 -78 -17 -38 -31 -74 -32 -80 -9 -33 -132 -286 -187 -385 -34 -61 -218
-342 -230 -350 -3 -3 -24 -27 -44 -55 -21 -27 -44 -57 -51 -65 -8 -8 -33 -37
-57 -65 -117 -138 -308 -315 -527 -488 -8 -7 -49 -34 -90 -62 -41 -27 -77 -53
-80 -56 -9 -10 -284 -165 -345 -193 -33 -16 -96 -44 -140 -63 -44 -19 -89 -38
-100 -44 -63 -29 -386 -127 -476 -144 -13 -3 -58 -11 -99 -20 -306 -61 -652
-75 -985 -40 -45 5 -234 33 -260 39 -5 1 -37 8 -70 15 -100 22 -246 61 -266
72 -11 5 -19 7 -19 5 0 -5 -145 46 -260 91 -72 28 -314 146 -400 195 -299 169
-672 479 -870 724 -8 11 -33 42 -55 69 -22 28 -42 52 -45 55 -3 3 -23 30 -45
60 -22 30 -42 57 -45 60 -7 7 -29 42 -37 60 -4 8 -10 17 -14 20 -26 18 -208
352 -272 500 -51 117 -129 330 -121 330 3 0 0 9 -6 21 -6 11 -13 28 -15 37 -3
9 -13 51 -24 92 -11 41 -23 89 -26 105 -12 54 -26 129 -30 153 -2 12 -8 53
-14 90 -51 318 -44 799 16 1067 2 11 6 29 7 40 9 53 18 95 33 150 8 33 17 70
19 82 7 39 80 257 119 354 48 121 153 340 205 425 22 36 40 68 40 70 0 2 16
27 35 54 19 27 35 52 35 55 0 5 101 147 127 180 5 6 26 32 48 60 47 58 44 55
117 137 231 259 533 506 818 667 85 48 356 181 369 181 6 0 23 7 36 16 14 9
25 13 25 9 0 -4 6 -3 13 3 6 5 68 28 137 51 171 57 186 61 210 66 12 2 30 7
40 10 10 3 27 8 37 10 10 2 52 11 93 20 41 9 90 18 109 21 18 3 43 8 55 10 33
7 113 16 276 30 41 3 76 7 77 8 5 4 367 -3 418 -8z"/>
<path d="M3320 8590 c-4 -3 -8 -264 -8 -580 -1 -316 -1 -591 -1 -610 l-1 -35
-612 0 -613 0 0 -485 0 -485 613 0 612 0 1 -55 c0 -30 0 -305 1 -612 0 -508 1
-557 17 -560 9 -2 228 -3 486 -3 l470 1 0 609 c0 336 3 612 6 615 4 3 279 5
612 5 539 -1 606 1 609 15 3 13 2 934 -1 951 -1 3 -274 5 -607 5 -393 -1 -608
3 -613 9 -4 6 -7 279 -6 608 0 397 -3 601 -10 605 -12 8 -943 10 -955 2z"/>
<path d="M9719 8023 c-76 -34 -119 -85 -169 -200 -23 -54 -48 -111 -55 -128
-7 -16 -25 -59 -40 -95 -15 -36 -37 -90 -50 -120 -26 -62 -131 -312 -148 -350
-5 -14 -11 -27 -11 -30 -1 -3 -14 -34 -29 -70 -16 -36 -32 -74 -37 -85 -5 -11
-29 -69 -55 -130 -61 -146 -66 -157 -75 -175 -6 -13 -64 -15 -421 -16 -473 -1
-483 -2 -562 -78 -51 -48 -74 -88 -84 -143 -23 -132 32 -248 150 -313 37 -20
58 -24 172 -26 72 -2 132 -4 135 -5 3 -1 10 0 15 1 12 2 206 2 220 0 6 -1 15
-1 20 0 12 2 206 2 220 0 6 -1 15 -1 20 0 12 2 206 2 220 0 6 -1 14 -1 20 0 5
1 38 3 72 5 34 2 68 7 75 11 7 5 19 9 27 10 7 2 34 20 59 41 47 40 80 94 121
198 14 33 34 83 47 110 12 28 53 124 90 213 70 169 74 173 87 92 7 -42 20
-113 33 -170 3 -14 7 -34 9 -45 2 -11 6 -31 9 -45 3 -14 11 -50 17 -80 6 -30
13 -62 16 -70 3 -8 7 -28 9 -45 2 -16 6 -41 9 -55 3 -14 8 -40 10 -59 3 -18 7
-36 10 -40 2 -4 7 -23 10 -42 3 -19 10 -54 15 -79 5 -25 12 -56 14 -70 3 -14
7 -36 11 -50 3 -14 7 -38 10 -55 3 -16 9 -50 15 -75 5 -25 14 -67 19 -95 16
-82 65 -322 75 -365 3 -14 8 -37 11 -52 3 -16 7 -40 10 -55 3 -16 10 -48 15
-73 6 -25 13 -56 15 -70 3 -14 11 -59 20 -100 8 -41 17 -86 19 -100 3 -14 8
-36 11 -50 4 -14 8 -32 9 -40 9 -49 20 -80 27 -80 5 0 9 -6 9 -14 0 -8 16 -31
35 -51 115 -118 295 -119 408 -2 34 36 50 67 85 163 24 65 60 162 79 214 19
52 37 102 39 110 2 8 22 65 44 125 23 61 42 115 44 120 1 6 14 44 30 85 24 66
32 88 37 105 0 2 30 82 65 177 36 95 67 180 69 188 5 19 151 425 167 463 l11
28 23 -42 c13 -22 24 -47 24 -54 0 -7 3 -15 8 -17 4 -1 14 -17 23 -34 9 -17
34 -64 55 -105 40 -78 95 -137 154 -167 32 -16 104 -17 984 -20 1075 -3 1008
-8 1096 77 110 105 119 272 20 384 -37 42 -104 84 -147 92 -10 2 -389 4 -843
4 l-825 1 -54 108 c-30 59 -63 119 -74 135 -10 15 -15 27 -11 27 3 0 2 6 -4
13 -9 11 -62 110 -157 297 -21 41 -49 92 -62 113 -13 20 -21 37 -18 37 3 0
-11 18 -31 40 -52 56 -129 90 -201 91 -130 1 -220 -61 -271 -186 -31 -74 -92
-251 -92 -264 0 -6 -5 -11 -12 -11 -6 0 -9 -3 -6 -6 3 -3 -5 -35 -19 -72 -13
-37 -76 -211 -139 -387 -63 -176 -118 -329 -124 -340 -8 -18 -23 -62 -25 -75
0 -3 -6 -15 -13 -27 -7 -13 -10 -23 -8 -23 3 0 -3 -20 -14 -44 -10 -24 -16
-46 -14 -49 2 -2 -2 -9 -9 -15 -11 -9 -17 10 -35 101 -12 62 -25 123 -28 137
-3 14 -10 45 -14 70 -5 25 -14 68 -20 95 -7 28 -13 59 -15 70 -2 11 -12 65
-23 120 -27 128 -29 139 -41 205 -6 30 -13 65 -16 78 -3 12 -7 32 -10 45 -2
12 -7 33 -10 47 -3 14 -7 39 -10 55 -2 17 -10 50 -16 75 -6 25 -12 56 -14 70
-1 14 -5 34 -8 45 -4 11 -9 36 -12 55 -3 19 -8 42 -10 50 -2 8 -7 31 -10 50
-3 19 -15 73 -25 120 -10 47 -21 103 -24 125 -4 22 -9 48 -12 57 -3 9 -7 27
-9 40 -24 119 -37 187 -41 208 -22 116 -89 204 -182 239 -63 24 -151 21 -213
-6z"/>
</g>
</svg>
