<svg xmlns="http://www.w3.org/2000/svg" viewBox="-5e-8 19 86.2 47.6">
  <path d="M26.8456048 39.74974044h7.6928859v6.09675197h-7.6928859v7.6928859h-6.09586376v-7.6928859h-7.6928859v-6.09675197h7.6928859v-7.69199768h6.09586375v7.69199768zm57.59849578 5.36219284H74.39653964L72.0702877 40.6557263c-.32064794-.61909035-.96993782-.9859258-1.67962675-.94329118-.69547739.04796396-1.30035619.50362156-1.53573487 1.1600172l-3.032388 8.40968061-2.5101138-12.38802444c-.1536623-.75676467-.7834113-1.32700283-1.55172285-1.40161343-.76831155-.07727527-1.4993178.3561768-1.79687197 1.0685304l-3.30329554 7.84565998h-4.937623c-.9734907 0-1.7604549.79051708-1.7604549 1.76134312 0 .97437892.78785243 1.75956667 1.7604549 1.75956667h6.10652241c.70880071 0 1.3500966-.42545807 1.62189235-1.0774126l1.54195243-3.66124878 2.62469435 12.9538215c.15632698.77364087.80916974 1.3509848 1.59791038 1.40694276.0417464.0044411.08526926.0044411.12790388.0044411.73900024 0 1.40250166-.46187515 1.65564477-1.16534653l3.80602888-10.54762961.95927915 1.84128305c.30377174.58178504.9068741.94595583 1.56326974.94595583h11.11609133c.97437893 0 1.75956668-.78785242 1.75956668-1.75867845s-.78518775-1.75779023-1.75956668-1.75779023zm-11.11609133 5.28491757h2.31026397l-9.11581665 11.17382573c-1.15202321 1.52507621-2.97376539 2.51100201-5.02822158 2.51100201-2.05623264 0-3.87797481-.9859258-5.02644514-2.51100201L46.6014261 49.60988665c-2.93024254 9.82372914-12.02918298 16.98723506-22.8050855 16.98723506C10.65421613 66.59712171-5e-8 55.94201731-5e-8 42.79811642c0-13.14301266 10.65421618-23.79811707 23.79634062-23.79811707 6.89171017 0 13.09593693 2.9329072 17.44200444 7.61294597 2.44349719-3.09989283 6.22376764-5.09750285 10.47746012-5.09750285 3.8237933 0 7.2620985 1.6156748 9.69227237 4.19062876 2.4319503-2.57495396 5.8702555-4.19062876 9.69227236-4.19062876 7.3695733 0 13.34197427 5.97417741 13.34197427 13.34108605 0 3.1522979-1.0978417 6.04257046-2.92580143 8.32529956h.00621755l-.07727526.09237503c-.01865265.02664665-.03996997.05151685-.06128728.07638705h-5.92088413L73.631781 39.8438919c-.6084317-1.16889942-1.80753064-1.89368811-3.12831592-1.89368811-.07283416 0-.14744476.00088822-.23093758.00799399-1.39450766.09326325-2.60426526 1.00546667-3.0776873 2.3200344l-.8988801 2.4896847-1.259498-6.22110297c-.30910106-1.52507622-1.55616396-2.651341-3.09811638-2.8041151-1.55616397-.15455052-3.0030767.71857115-3.60173794 2.1370608L55.4880816 42.648007h-3.76694713c-1.94342851 0-3.52268623 1.58103416-3.52268623 3.52268623s1.5783695 3.52179802 3.52268623 3.52179802h6.10652241c.94595583 0 1.83151261-.37749412 2.4772496-1.01790177l1.5828106 7.82345445c.3144304 1.54195242 1.62722169 2.69930496 3.18693854 2.81477375.09059858.00621755.18030895.00977043.26735465.00977043 1.48155337 0 2.8129973-.93707362 3.31217776-2.32625195l2.6184768-7.25676918c.5880026.4183523 1.30302086.65728387 2.05534442.65728387zm-29.24824384-3.8442224-2.52610177-3.06347575c-.08882215-.09859258-.1696503-.20162626-.25047845-.30377173l-.13500966-.1616563h.0124351c-1.75334912-2.25874713-2.80766798-5.08506775-2.80766798-8.16719615 0-1.92299942.41479942-3.74562982 1.1475821-5.3977217-3.78915266-4.45798341-9.42758237-7.2994038-15.72329594-7.2994038-11.3798931 0-20.63960163 9.25793208-20.63960163 20.6387134 0 11.3798931 9.25970852 20.6387134 20.6387134 20.6387134 10.09818957 0 18.51053484-7.29496269 20.28342483-16.88420137z" fill="#1976d2"/>
</svg>
