<svg width="370" height="70" xmlns="http://www.w3.org/2000/svg">
    <g fill="#1976d2">
        <path d="m32.37 29.539h7.6929v6.0968h-7.6929v7.6929h-6.0959v-7.6929h-7.6929v-6.0968h7.6929v-7.692h6.0959v7.692zm57.599 5.3622h-10.048l-2.3263-4.4562c-0.32065-0.61909-0.96994-0.98593-1.6796-0.94329-0.69548 0.047964-1.3004 0.50362-1.5357 1.16l-3.0324 8.4097-2.5101-12.388c-0.15366-0.75677-0.78341-1.327-1.5517-1.4016-0.76831-0.077275-1.4993 0.35618-1.7969 1.0685l-3.3033 7.8457h-4.9376c-0.97349 0-1.7605 0.79052-1.7605 1.7613 0 0.97438 0.78785 1.7596 1.7605 1.7596h6.1065c0.7088 0 1.3501-0.42546 1.6219-1.0774l1.542-3.6613 2.6247 12.954c0.15633 0.77364 0.80917 1.351 1.5979 1.4069 0.041746 0.0044411 0.085269 0.0044411 0.1279 0.0044411 0.739 0 1.4025-0.46188 1.6556-1.1653l3.806-10.548 0.95928 1.8413c0.30377 0.58179 0.90687 0.94596 1.5633 0.94596h11.116c0.97438 0 1.7596-0.78785 1.7596-1.7587s-0.78519-1.7578-1.7596-1.7578zm-11.116 5.2849h2.3103l-9.1158 11.174c-1.152 1.5251-2.9738 2.511-5.0282 2.511-2.0562 0-3.878-0.98593-5.0264-2.511l-9.8664-11.961c-2.9302 9.8237-12.029 16.987-22.805 16.987-13.142 0-23.796-10.655-23.796-23.799 0-13.143 10.654-23.798 23.796-23.798 6.8917 0 13.096 2.9329 17.442 7.613 2.4435-3.0999 6.2238-5.0975 10.477-5.0975 3.8238 0 7.2621 1.6157 9.6923 4.1906 2.432-2.575 5.8703-4.1906 9.6923-4.1906 7.3696 0 13.342 5.9742 13.342 13.341 0 3.1523-1.0978 6.0426-2.9258 8.3253h0.0062176l-0.077275 0.092375c-0.018653 0.026647-0.03997 0.051517-0.061287 0.076387h-5.9209l-1.8315-3.5067c-0.60843-1.1689-1.8075-1.8937-3.1283-1.8937-0.072834 0-0.14744 8.8822e-4 -0.23094 0.007994-1.3945 0.093263-2.6043 1.0055-3.0777 2.32l-0.89888 2.4897-1.2595-6.2211c-0.3091-1.5251-1.5562-2.6513-3.0981-2.8041-1.5562-0.15455-3.0031 0.71857-3.6017 2.1371l-2.8485 6.7683h-3.7669c-1.9434 0-3.5227 1.581-3.5227 3.5227s1.5784 3.5218 3.5227 3.5218h6.1065c0.94596 0 1.8315-0.37749 2.4773-1.0179l1.5828 7.8235c0.31443 1.542 1.6272 2.6993 3.1869 2.8148 0.090599 0.0062176 0.18031 0.0097704 0.26735 0.0097704 1.4816 0 2.813-0.93707 3.3122-2.3263l2.6185-7.2568c0.588 0.41835 1.303 0.65728 2.0553 0.65728zm-29.248-3.8442-2.5261-3.0635c-0.088822-0.098593-0.16965-0.20163-0.25048-0.30377l-0.13501-0.16166h0.012435c-1.7534-2.2587-2.8077-5.0851-2.8077-8.1672 0-1.923 0.4148-3.7456 1.1476-5.3977-3.7892-4.458-9.4276-7.2994-15.723-7.2994-11.38 0-20.64 9.2579-20.64 20.639 0 11.38 9.2597 20.639 20.639 20.639 10.098 0 18.511-7.295 20.283-16.884z"/>
        <path d="m107.01 34.246c-1.0733-0.43607-2.0712-0.92241-2.9937-1.4591s-1.719-1.1824-2.3899-1.9371-1.1907-1.6436-1.5597-2.6666-0.55345-2.239-0.55345-3.6478c0-1.7442 0.30188-3.2787 0.90565-4.6037s1.4507-2.4402 2.5409-3.3459 2.4067-1.5933 3.9497-2.0629 3.2536-0.7044 5.132-0.7044c1.543 0 3.1195 0.15934 4.7295 0.47798s3.5388 0.86369 5.7861 1.6352l-3.4214 6.1383c-2.1803-1.0398-4.478-1.5597-6.893-1.5597-0.46958 0-0.95597 0.050314-1.4591 0.15094s-0.95597 0.27673-1.3585 0.5283-0.73796 0.59537-1.0063 1.0314-0.40251 1.0063-0.40251 1.7107c0 0.57021 0.10903 1.0398 0.32704 1.4087s0.49474 0.68759 0.83018 0.95592 0.7212 0.49474 1.1573 0.67924 0.87214 0.3606 1.3082 0.5283l2.9685 1.1572c1.2746 0.50314 2.4402 1.0314 3.4968 1.5849s1.9538 1.2243 2.6918 2.0126 1.3082 1.7526 1.7107 2.8931 0.60377 2.566 0.60377 4.2767-0.31029 3.2704-0.93081 4.6792-1.5262 2.608-2.717 3.5975-2.6583 1.761-4.4025 2.3144-3.7401 0.83018-5.9874 0.83018c-1.0398 0-1.9958-0.033559-2.8679-0.10063s-1.719-0.18445-2.5409-0.35215-1.6436-0.36895-2.4653-0.60377-1.7023-0.5367-2.6415-0.90565l1.7107-7.044c1.3752 0.36895 2.7253 0.69599 4.0503 0.98112s2.6749 0.42767 4.0503 0.42767c1.8449 0 3.2536-0.24317 4.2264-0.72955s1.5429-1.4172 1.7106-2.7924c0.067069-0.7044-0.016804-1.2914-0.25162-1.761s-0.57026-0.86369-1.0063-1.1823-0.92246-0.57861-1.4592-0.77987l-1.61-0.60377zm33.409 4.5283c-0.33544-0.067069-0.68754-0.10913-1.0565-0.12588s-0.68759-0.025157-0.95592-0.025157c-1.4088 0-2.5492 0.21801-3.4214 0.65408s-1.3082 1.1908-1.3082 2.2641c0 0.67084 0.15934 1.1991 0.47798 1.5849s0.71275 0.67089 1.1823 0.85539 0.96432 0.29353 1.4842 0.32709 0.96432 0.050314 1.3333 0.050314c0.67084 0 1.4255-0.083874 2.2641-0.25157v-5.3333zm-2.6163-5.5345c0.26832 0 0.62883 0.0084512 1.0817 0.025207s0.96437 0.041912 1.5346 0.075471c-0.033559-1.3082-0.49479-2.1551-1.3837-2.5409s-2.0377-0.57861-3.4465-0.57861c-0.77147 0-1.6604 0.092226-2.6666 0.27673s-2.0964 0.46123-3.2704 0.83018l-0.80502-2.7673c-0.10063-0.36895-0.24317-0.90565-0.42767-1.61s-0.31029-1.2579-0.37736-1.6604c1.6771-0.57021 3.2621-0.98112 4.7547-1.2327s2.8427-0.37736 4.0503-0.37736c3.5554 0 6.3059 0.84694 8.2515 2.5409s2.9182 4.4025 2.9182 8.1257v14.742c-1.3082 0.36895-2.8176 0.72955-4.5283 1.0818s-3.5554 0.5283-5.5345 0.5283c-1.7442 0-3.329-0.15094-4.7547-0.45283s-2.6498-0.80502-3.6729-1.5094-1.8113-1.6268-2.3648-2.7673-0.83018-2.5326-0.83018-4.1761 0.3438-3.0188 1.0314-4.1258 1.5765-1.9874 2.6666-2.6415 2.3144-1.1153 3.6729-1.3836 2.7253-0.40251 4.1006-0.40251zm11.522-9.2578h8.7546l4.9308 16.654 0.10063 0.60377 0.10063-0.60377 4.8301-16.654h8.654l-9.8616 26.365h-7.849zm39.748-0.25157c1.7442 0 3.3122 0.24307 4.7044 0.72945s2.5577 1.2747 3.4968 2.3648 1.6604 2.4905 2.1635 4.2012 0.75471 3.7736 0.75471 6.1886v0.77987l-0.10063 1.5849h-14.088l-1.0566-0.15094c0.033559 0.97272 0.14259 1.7526 0.32709 2.3396s0.45283 1.0482 0.80502 1.3837 0.77987 0.57026 1.283 0.70445 1.0733 0.21806 1.7107 0.25162c1.0398 0.067069 1.9371-0.083874 2.6918-0.45283s1.4675-1.1237 2.1383-2.2641c1.0398 0.33544 1.9958 0.65408 2.8679 0.95597 0.73796 0.26832 1.4088 0.50314 2.0126 0.7044s0.90565 0.28513 0.90565 0.25157c-1.2075 2.5157-2.6749 4.3522-4.4025 5.5094s-3.7987 1.7358-6.2138 1.7358c-1.7777 0-3.3879-0.23482-4.8301-0.7044s-2.6666-1.2327-3.6729-2.2893-1.7861-2.4318-2.3396-4.1258-0.83018-3.7653-0.83018-6.2138c0-2.3815 0.27673-4.4193 0.83018-6.1132s1.3333-3.086 2.3396-4.1761 2.2306-1.8952 3.6729-2.4151 3.0523-0.77987 4.8301-0.77987zm2.7673 10.063 0.75481 0.10063c-0.067069-1.174-0.37736-2.088-0.93081-2.7421s-1.4172-0.98112-2.5912-0.98112c-1.3417 0-2.3061 0.32704-2.8931 0.98112s-0.94762 1.5681-1.0818 2.7421c0.1677-0.033559 0.31864-0.058716 0.45283-0.075471s0.28513-0.025157 0.45283-0.025157h5.8364zm26.817-19.472 8.2515-4.913e-5v13.585h10.717v-13.585h8.2515v35.975h-8.2515v-15.346c-0.20126 0.033559-0.38576 0.067119-0.55345 0.10068l-0.60377 0.10063h-8.4528l-1.1069-0.20126v15.346h-8.2515v-35.975zm43.874 9.4087c1.7442 0 3.3122 0.24307 4.7044 0.72945s2.5577 1.2747 3.4968 2.3648 1.6604 2.4905 2.1635 4.2012 0.75471 3.7736 0.75471 6.1886v0.77987l-0.10063 1.5849h-14.088l-1.0566-0.15094c0.033559 0.97272 0.14259 1.7526 0.32709 2.3396s0.45283 1.0482 0.80502 1.3837 0.77987 0.57026 1.283 0.70445 1.0733 0.21806 1.7107 0.25162c1.0398 0.067069 1.9371-0.083874 2.6918-0.45283s1.4675-1.1237 2.1383-2.2641c1.0398 0.33544 1.9958 0.65408 2.8679 0.95597 0.73796 0.26832 1.4088 0.50314 2.0126 0.7044s0.90565 0.28513 0.90565 0.25157c-1.2075 2.5157-2.6749 4.3522-4.4025 5.5094s-3.7987 1.7358-6.2138 1.7358c-1.7777 0-3.3879-0.23482-4.8301-0.7044s-2.6666-1.2327-3.6729-2.2893-1.7861-2.4318-2.3396-4.1258-0.83018-3.7653-0.83018-6.2138c0-2.3815 0.27673-4.4193 0.83018-6.1132s1.3333-3.086 2.3396-4.1761 2.2306-1.8952 3.6729-2.4151 3.0523-0.77987 4.8301-0.77987zm2.7673 10.063 0.75481 0.10063c-0.067069-1.174-0.37736-2.088-0.93081-2.7421s-1.4172-0.98112-2.5912-0.98112c-1.3417 0-2.3061 0.32704-2.8931 0.98112s-0.94762 1.5681-1.0818 2.7421c0.1677-0.033559 0.31864-0.058716 0.45283-0.075471s0.28513-0.025157 0.45283-0.025157h5.8364zm25.861 4.9811c-0.33544-0.067069-0.68754-0.10913-1.0565-0.12588s-0.68759-0.025157-0.95592-0.025157c-1.4088 0-2.5492 0.21801-3.4214 0.65408s-1.3082 1.1908-1.3082 2.2641c0 0.67084 0.15934 1.1991 0.47798 1.5849s0.71275 0.67089 1.1823 0.85539 0.96432 0.29353 1.4842 0.32709 0.96432 0.050314 1.3333 0.050314c0.67084 0 1.4255-0.083874 2.2641-0.25157v-5.3333zm-2.6163-5.5345c0.26832 0 0.62883 0.0084512 1.0817 0.025207s0.96437 0.041912 1.5346 0.075471c-0.033559-1.3082-0.49479-2.1551-1.3837-2.5409s-2.0377-0.57861-3.4465-0.57861c-0.77147 0-1.6604 0.092226-2.6666 0.27673s-2.0964 0.46123-3.2704 0.83018l-0.80502-2.7673c-0.10063-0.36895-0.24317-0.90565-0.42767-1.61s-0.31029-1.2579-0.37736-1.6604c1.6771-0.57021 3.2621-0.98112 4.7547-1.2327s2.8427-0.37736 4.0503-0.37736c3.5554 0 6.3059 0.84694 8.2515 2.5409s2.9182 4.4025 2.9182 8.1257v14.742c-1.3082 0.36895-2.8176 0.72955-4.5283 1.0818s-3.5554 0.5283-5.5345 0.5283c-1.7442 0-3.329-0.15094-4.7547-0.45283s-2.6498-0.80502-3.6729-1.5094-1.8113-1.6268-2.3648-2.7673-0.83018-2.5326-0.83018-4.1761 0.3438-3.0188 1.0314-4.1258 1.5765-1.9874 2.6666-2.6415 2.3144-1.1153 3.6729-1.3836 2.7253-0.40251 4.1006-0.40251zm15.094-19.321 7.5974 4.913e-5v25.912c0 0.87209 0.050314 1.5765 0.15094 2.1132s0.25997 0.95597 0.47798 1.2579 0.49474 0.50314 0.83018 0.60377 0.73796 0.15094 1.2075 0.15094c0.23482 0 0.50314-0.0084019 0.80502-0.025157s0.80502-0.092226 1.5094-0.22641l0.45283 6.2893c-0.87209 0.26832-1.6855 0.43602-2.4402 0.50309s-1.434 0.10063-2.0377 0.10063c-2.6835 0-4.7798-0.72955-6.2893-2.1887s-2.2641-3.8322-2.2641-7.1194v-27.371zm17.61 16.402h-3.1195v-6.3396h3.1195v-7.1446h7.5471v7.1446h6.2389l-3.522 6.3396h-2.9685l0.25157 1.61v7.8993c0 0.87209 0.058716 1.5765 0.1761 2.1132s0.30188 0.95597 0.55345 1.2579 0.57021 0.51154 0.95597 0.62893 0.83018 0.1761 1.3333 0.1761c0.36895 0 0.82178-0.041912 1.3585-0.12579s1.1069-0.1761 1.7107-0.27673l0.40251 3.371 0.30188 3.0188c-0.97272 0.20126-1.8616 0.3522-2.6666 0.45283s-1.6268 0.15094-2.4654 0.15094c-3.1195 0-5.4339-0.72115-6.9433-2.1635s-2.2641-3.8239-2.2641-7.1446v-10.968zm18.314-9.2075c0 0.033559-0.22646 0.050216-0.67929 0.050216h-3.5975l3.4214-6.1383h8.4528v11.371c0.7044-0.67084 1.5765-1.2662 2.6163-1.7861s2.2809-0.77987 3.7232-0.77987c2.9854 0 5.2075 0.83018 6.6666 2.4905s2.1887 4.3019 2.1887 7.9245v16.05h-7.6477v-15.044c0-1.3082-0.30188-2.348-0.90565-3.1195s-1.5262-1.1572-2.7673-1.1572c-1.0733 0-1.9874 0.29348-2.7421 0.8805s-1.1321 1.7023-1.1321 3.3459v15.094h-7.6981z"/>
    </g>
</svg>
