<svg xmlns="http://www.w3.org/2000/svg" width="369.79633096" height="68.25685767">
    <path d="M26.8456048 39.74974044h7.6928859v6.09675197h-7.6928859v7.6928859h-6.09586376v-7.6928859h-7.6928859v-6.09675197h7.6928859v-7.69199768h6.09586375v7.69199768zm57.59849578 5.36219284H74.39653964L72.0702877 40.6557263c-.32064794-.61909035-.96993782-.9859258-1.67962675-.94329118-.69547739.04796396-1.30035619.50362156-1.53573487 1.1600172l-3.032388 8.40968061-2.5101138-12.38802444c-.1536623-.75676467-.7834113-1.32700283-1.55172285-1.40161343-.76831155-.07727527-1.4993178.3561768-1.79687197 1.0685304l-3.30329554 7.84565998h-4.937623c-.9734907 0-1.7604549.79051708-1.7604549 1.76134312 0 .97437892.78785243 1.75956667 1.7604549 1.75956667h6.10652241c.70880071 0 1.3500966-.42545807 1.62189235-1.0774126l1.54195243-3.66124878 2.62469435 12.9538215c.15632698.77364087.80916974 1.3509848 1.59791038 1.40694276.0417464.0044411.08526926.0044411.12790388.0044411.73900024 0 1.40250166-.46187515 1.65564477-1.16534653l3.80602888-10.54762961.95927915 1.84128305c.30377174.58178504.9068741.94595583 1.56326974.94595583h11.11609133c.97437893 0 1.75956668-.78785242 1.75956668-1.75867845s-.78518775-1.75779023-1.75956668-1.75779023zm-11.11609133 5.28491757h2.31026397l-9.11581665 11.17382573c-1.15202321 1.52507621-2.97376539 2.51100201-5.02822158 2.51100201-2.05623264 0-3.87797481-.9859258-5.02644514-2.51100201L46.6014261 49.60988665c-2.93024254 9.82372914-12.02918298 16.98723506-22.8050855 16.98723506C10.65421613 66.59712171-5e-8 55.94201731-5e-8 42.79811642c0-13.14301266 10.65421618-23.79811707 23.79634062-23.79811707 6.89171017 0 13.09593693 2.9329072 17.44200444 7.61294597 2.44349719-3.09989283 6.22376764-5.09750285 10.47746012-5.09750285 3.8237933 0 7.2620985 1.6156748 9.69227237 4.19062876 2.4319503-2.57495396 5.8702555-4.19062876 9.69227236-4.19062876 7.3695733 0 13.34197427 5.97417741 13.34197427 13.34108605 0 3.1522979-1.0978417 6.04257046-2.92580143 8.32529956h.00621755l-.07727526.09237503c-.01865265.02664665-.03996997.05151685-.06128728.07638705h-5.92088413L73.631781 39.8438919c-.6084317-1.16889942-1.80753064-1.89368811-3.12831592-1.89368811-.07283416 0-.14744476.00088822-.23093758.00799399-1.39450766.09326325-2.60426526 1.00546667-3.0776873 2.3200344l-.8988801 2.4896847-1.259498-6.22110297c-.30910106-1.52507622-1.55616396-2.651341-3.09811638-2.8041151-1.55616397-.15455052-3.0030767.71857115-3.60173794 2.1370608L55.4880816 42.648007h-3.76694713c-1.94342851 0-3.52268623 1.58103416-3.52268623 3.52268623s1.5783695 3.52179802 3.52268623 3.52179802h6.10652241c.94595583 0 1.83151261-.37749412 2.4772496-1.01790177l1.5828106 7.82345445c.3144304 1.54195242 1.62722169 2.69930496 3.18693854 2.81477375.09059858.00621755.18030895.00977043.26735465.00977043 1.48155337 0 2.8129973-.93707362 3.31217776-2.32625195l2.6184768-7.25676918c.5880026.4183523 1.30302086.65728387 2.05534442.65728387zm-29.24824384-3.8442224-2.52610177-3.06347575c-.08882215-.09859258-.1696503-.20162626-.25047845-.30377173l-.13500966-.1616563h.0124351c-1.75334912-2.25874713-2.80766798-5.08506775-2.80766798-8.16719615 0-1.92299942.41479942-3.74562982 1.1475821-5.3977217-3.78915266-4.45798341-9.42758237-7.2994038-15.72329594-7.2994038-11.3798931 0-20.63960163 9.25793208-20.63960163 20.6387134 0 11.3798931 9.25970852 20.6387134 20.6387134 20.6387134 10.09818957 0 18.51053484-7.29496269 20.28342483-16.88420137z" xmlns="http://www.w3.org/2000/svg" fill="#1976d2"/>
    <path d="M114.73231362 51.1037262c-1.1088814-.45050742-2.13979334-.9529425-3.09278783-1.50740919s-1.77593594-1.22152124-2.46898032-2.00121565-1.23014986-1.69801848-1.61131646-2.75492024-.5717759-2.31309342-.5717759-3.76852298c0-1.80197774.31187776-3.38725242.93563329-4.7561359s1.4987286-2.52101193 2.62497118-3.45664522 2.48639349-1.64603885 4.08040074-2.13116472 3.3612626-.72771478 5.30192199-.72771478c1.59405923 0 3.22273689.16461948 4.88608496.49380646s3.65598709.89228228 5.97765714 1.6892859l-3.53461465 6.34151454c-2.2524332-1.07426296-4.62618683-1.61136845-7.12120894-1.61136845-.48512587 0-.98761292.05197963-1.5074092.15593889s-.98761292.28588795-1.40344993.54578608-.7623852.61507493-1.03959255 1.06558236-.41583702 1.03959255-.41583702 1.76730733c0 .58908512.11263985 1.07421098.33786758 1.45537758s.51111567.7103536.85766385.98756094.74507598.51111568 1.1955834.70172497.90101487.372538 1.3515223.54578609l3.066798 1.19553143c1.3167999.51979627 2.52101193 1.06558236 3.6125841 1.63735826s2.01852487 1.26482027 2.78091007 2.07918509 1.3514703 1.81065834 1.76730732 2.98882857.62375553 2.650961.62375553 4.41826832-.32055836 3.37867577-.9616231 4.83410534-1.57669804 2.69436398-2.80689988 3.71654335-2.7463436 1.81928696-4.54821739 2.39106286-3.8639056.85766385-6.18557565.85766385c-1.07426295 0-2.06187587-.03467041-2.96283875-.10395926s-1.77593595-.19055731-2.62497118-.3638054-1.6979665-.38116662-2.54694976-.62375554-1.75862673-.55446668-2.72893043-.93563329l1.76730733-7.27714782c1.42075915.3811666 2.8154765.71903418 4.18436 1.01360273s2.76349688.44182683 4.18436.44182683c1.90593699 0 3.3612626-.25121753 4.36628869-.7537046s1.59400725-1.46411015 1.76725534-2.8848693c.06928885-.72771479-.01736015-1.3341611-.25995011-1.81928696s-.5891371-.89228228-1.03964453-1.22146926-.95299449-.59776572-1.50746117-.80568423l-1.66334807-.62375553zm34.51447253 4.67816646c-.34654818-.06928884-.71030161-.1127438-1.09146822-.13004783s-.71035359-.0259898-.98756094-.0259898c-1.45542956 0-2.63354782.22522772-3.53461465.67573515s-1.35147031 1.23020183-1.35147031 2.33908322c0 .69304437.16461948 1.23883046.49380646 1.63735826s.7363434.69309635 1.22146926.88370565.99624153.30324914 1.53334702.33791956.99624154.05197962 1.37740815.05197962c.69304437 0 1.47273878-.08665004 2.33908323-.25989813v-5.5098405zm-2.70294062-5.717759c.27720735 0 .64964138.00873102 1.11745802.0260418s.99629352.04329902 1.58537864.07796943c-.03467042-1.3514703-.51116766-2.22644337-1.42949173-2.62497117s-2.10517491-.59776572-3.56060447-.59776572c-.79700363 0-1.7153277.09527866-2.75492025.28588795s-2.16583513.47649725-3.37867578.85766385l-.83167403-2.8588795c-.10395926-.3811666-.25121754-.9356333-.44182684-1.66334807s-.32055836-1.29949069-.3898472-1.7153277c1.73263692-.58908512 3.37009914-1.01360274 4.91207478-1.27350087s2.93684894-.3898472 4.18436-.3898472c3.67314036 0 6.51460669.87497306 8.52465888 2.62497117s3.01481838 4.54821739 3.01481838 8.39470981v15.2300308c-1.35147031.3811666-2.91085913.7537046-4.67816646 1.11756199s-3.67314036.54578608-5.717759.54578608c-1.80197774 0-3.43923204-.15593888-4.91207478-.46781664s-2.73750707-.83167404-3.7945128-1.55938882-1.87126658-1.68065729-2.44304248-2.8588795-.85766385-2.61639454-.85766385-4.31430907.3551768-3.11877764 1.06558236-4.26232944 1.62872964-2.05319528 2.75492025-2.72893043 2.39106285-1.1522324 3.7945128-1.42943975 2.8154765-.41583702 4.23633962-.41583702zm17.30921589-3.01481838-4.05441093.00010152v-6.54943304h4.05441093v-.88365367c.06928884-1.28218146.32918698-2.5123833.7796944-3.69055353s1.1262426-2.16583514 2.02720547-2.96283876c1.87126658-1.87126658 4.4356815-2.80689988 7.69298484-2.80689988.9356333 0 1.81060636.06066023 2.62497118.1819287s1.81065834.37248601 2.98882857.75365262l-.51979627.88365366-1.1435518 1.92324621-1.1435518 1.92324621-.51979628.88365367h-1.29949068c-1.10888139 0-1.99253505.22522772-2.650961.67573515s-.98761291 1.19553143-.98761291 2.23512397v.88365367h6.75735155l-3.53461466 6.54943304h-3.4306554l.20791851 1.45542956v19.18048248h-7.84892372V47.04936482zm26.92544694-6.80933118c1.80197774 0 3.42181887.25111878 4.86009515.75360064s2.64238436 1.31685187 3.6125841 2.44309446 1.7153277 2.57299155 2.23512398 4.34029888.7796944 3.89847205.7796944 6.39349416v.80568422l-.10395925 1.63735826H187.6077511l-1.09157218-.15593888c.03467041 1.00492213.14731027 1.81060636.33791956 2.41705267s.46781664 1.08294355.83167404 1.42949173.80568422.5891371 1.3254805.72776676 1.10888138.2252797 1.76730732.25995012c1.07426296.06928884 2.00121565-.08665004 2.78091006-.46781665s1.5160898-1.16086102 2.20913416-2.33908323c1.07426296.34654818 2.06187588.67573516 2.96283876.98761292.7623852.27720735 1.45542956.51979627 2.07918509.72771478s.9356333.29456855.9356333.25989814c-1.24751106 2.59898137-2.7634969 4.49623776-4.5482174 5.69176919s-3.92446186 1.79329714-6.41948397 1.79329714c-1.83659617 0-3.5000482-.24258892-4.99004422-.72771478s-2.75492025-1.27350087-3.7945128-2.36507304-1.84527676-2.51233133-2.41705266-4.26232944-.85766385-3.88989541-.85766385-6.41948397c0-2.4603517.28588795-4.56563057.85766385-6.31552472s1.37746012-3.18817044 2.41705267-4.31430907 2.30441281-1.95791662 3.79451279-2.4950221 3.15334409-.80568423 4.99004422-.80568423zm2.8588795 10.39592546.77979837.10395926c-.06928884-1.21284065-.3898472-2.15715454-.9616231-2.8328897s-1.46411017-1.01360273-2.67695081-1.01360273c-1.38614072 0-2.38243424.33786758-2.98882857 1.01360274s-.9789843 1.62004904-1.11761397 2.83288969c.1732481-.03467042.32918698-.06066023.46781665-.07796945s.29456855-.0259898.46781664-.0259898h6.02963677zm27.70514135-20.11611577 8.52465888-.00005076v14.03449938h11.07166062V30.51974303h8.52465888v37.16543353h-8.52465888V51.83139023c-.20791851.0346704-.3985278.06934082-.5717759.10401123l-.62375553.10395926h-8.73257739l-1.1435518-.20791851v15.85378633h-8.52465888V30.519795zm45.32623501 9.72019031c1.80197774 0 3.42181887.25111878 4.86009516.75360064s2.64238435 1.31685187 3.6125841 2.44309446 1.7153277 2.57299155 2.23512397 4.34029888.7796944 3.89847205.7796944 6.39349416v.80568422l-.10395925 1.63735826h-14.55429564l-1.09157218-.15593888c.03467042 1.00492213.14731027 1.81060636.33791956 2.41705267s.46781665 1.08294355.83167404 1.42949173.80568422.5891371 1.3254805.72776676 1.10888138.2252797 1.76730732.25995012c1.07426296.06928884 2.00121565-.08665004 2.78091006-.46781665s1.5160898-1.16086102 2.20913416-2.33908323c1.07426296.34654818 2.06187588.67573516 2.96283876.98761292.7623852.27720735 1.45542956.51979627 2.0791851.72771478s.93563328.29456855.93563328.25989814c-1.24751105 2.59898137-2.76349688 4.49623776-4.54821739 5.69176919s-3.92446186 1.79329714-6.41948397 1.79329714c-1.83659617 0-3.5000482-.24258892-4.99004422-.72771478s-2.75492025-1.27350087-3.7945128-2.36507304-1.84527676-2.51233133-2.41705266-4.26232944-.85766385-3.88989541-.85766385-6.41948397c0-2.4603517.28588795-4.56563057.85766385-6.31552472s1.37746012-3.18817044 2.41705267-4.31430907 2.30441282-1.95791662 3.7945128-2.4950221 3.15334408-.80568423 4.99004421-.80568423zm2.8588795 10.39592546.77979837.10395926c-.06928884-1.21284065-.3898472-2.15715454-.9616231-2.8328897s-1.46411016-1.01360273-2.6769508-1.01360273c-1.38614073 0-2.38243425.33786758-2.98882858 1.01360274s-.9789843 1.62004904-1.11761396 2.83288969c.1732481-.03467042.32918698-.06066023.46781664-.07796945s.29456855-.0259898.46781665-.0259898h6.02963676zm26.71752844 5.1459831c-.34654818-.06928884-.7103016-.1127438-1.09146822-.13004783s-.71035358-.0259898-.98756093-.0259898c-1.45542957 0-2.63354782.22522772-3.53461466.67573515s-1.35147031 1.23020183-1.35147031 2.33908322c0 .69304437.16461948 1.23883046.49380646 1.63735826s.7363434.69309635 1.22146926.88370565.99624154.30324914 1.53334703.33791956.99624153.05197962 1.37740814.05197962c.69304437 0 1.47273878-.08665004 2.33908323-.25989813v-5.5098405zm-2.70294062-5.717759c.27720735 0 .64964138.00873102 1.11745803.0260418s.99629351.04329902 1.58537863.07796943c-.03467041-1.3514703-.51116766-2.22644337-1.42949173-2.62497117s-2.1051749-.59776572-3.56060447-.59776572c-.79700363 0-1.7153277.09527866-2.75492025.28588795s-2.16583513.47649725-3.37867577.85766385l-.83167404-2.8588795c-.10395925-.3811666-.25121754-.9356333-.44182683-1.66334807s-.32055836-1.29949069-.3898472-1.7153277c1.73263691-.58908512 3.37009913-1.01360274 4.91207477-1.27350087s2.93684895-.3898472 4.18436-.3898472c3.67314036 0 6.5146067.87497306 8.52465888 2.62497117s3.01481838 4.54821739 3.01481838 8.39470981v15.2300308c-1.3514703.3811666-2.91085913.7537046-4.67816645 1.11756199s-3.67314037.54578608-5.717759.54578608c-1.80197775 0-3.43923205-.15593888-4.91207479-.46781664s-2.73750707-.83167404-3.7945128-1.55938882-1.87126657-1.68065729-2.44304247-2.8588795-.85766386-2.61639454-.85766386-4.31430907.3551768-3.11877764 1.06558236-4.26232944 1.62872965-2.05319528 2.75492025-2.72893043 2.39106286-1.1522324 3.7945128-1.42943975 2.8154765-.41583702 4.23633962-.41583702zm15.59388819-19.96017688 7.84892372.00005076V56.8735156c0 .90096288.05197963 1.62867766.15593888 2.18314434s.26857874.98761292.49380646 1.29949069.51111568.51979627.85766385.62375552.7623852.15593889 1.24751106.15593889c.24258892 0 .51979627-.00868008.83167404-.02598982s.83167403-.09527865 1.55938882-.23390832l.46781664 6.49745341c-.90096288.27720736-1.74131751.45045545-2.52101192.5197443s-1.48141938.10395925-2.1051749.10395925c-2.77233343 0-4.9380646-.7537046-6.49745342-2.26111379s-2.33908323-3.95902831-2.33908323-7.35511726V30.10395556zm18.19286956 16.9453585h-3.2227369v-6.54943304h3.2227369v-7.38110708h7.7969441v7.38110708h6.44547378l-3.63857391 6.54943304h-3.06679802l.25989814 1.66334807v8.16080149c0 .90096288.06066023 1.62867766.1819287 2.18314434s.31187776.98761292.5717759 1.29949069.58908511.52847687.98761292.64974534.85766385.1819287 1.37746012.1819287c.3811666 0 .84898325-.04329904 1.40344994-.12994907s1.1435518-.1819287 1.76730733-.28588796l.41583701 3.48263503.31187777 3.11877764c-1.00492214.20791851-1.92324621.3638574-2.75492025.46781665s-1.68065729.15593888-2.54700174.15593888c-3.22273689 0-5.61379975-.745024-7.17318857-2.23512397s-2.33908322-3.95045168-2.33908322-7.38110708V47.04931528zm18.92058433-9.5122718c0 .03467041-.2339603.05187827-.70177694.05187827h-3.71654336l3.53461466-6.34151453h8.73257739v11.74739577c.72771478-.69304437 1.62867766-1.3081193 2.70294062-1.8452248s2.35644442-.80568422 3.84649242-.80568422c3.08421118 0 5.37989142.85766385 6.88730062 2.57299156s2.26111378 4.44425813 2.26111378 8.1867913v16.5815011h-7.90090335V52.14326938c0-1.3514703-.31187776-2.42573327-.93563329-3.2227369s-1.57669803-1.19553142-2.8588795-1.19553142c-1.10888139 0-2.05319528.30319717-2.83288969.90964348s-1.16954161 1.7586787-1.16954161 3.45664521v15.5938882h-7.95288298z" fill="#1976d2"/>
</svg>
